<mxfile host="Electron" agent="Mozilla/5.0 (X11; Linux x86_64) AppleWebKit/537.36 (KHTML, like Gecko) draw.io/26.0.16 Chrome/132.0.6834.196 Electron/34.2.0 Safari/537.36" version="26.0.16">
  <diagram name="PÃ¡gina-1" id="nSnQnqNu6W_eE-UheOUM">
    <mxGraphModel dx="1434" dy="871" grid="1" gridSize="10" guides="1" tooltips="1" connect="1" arrows="1" fold="1" page="1" pageScale="1" pageWidth="850" pageHeight="500" math="0" shadow="0">
      <root>
        <mxCell id="0" />
        <mxCell id="1" parent="0" />
        <mxCell id="JTh9-B9_ptDmFLmirEWQ-1" value="deputados_56" style="rounded=0;whiteSpace=wrap;html=1;" vertex="1" parent="1">
          <mxGeometry x="427" y="60" width="120" height="60" as="geometry" />
        </mxCell>
        <mxCell id="JTh9-B9_ptDmFLmirEWQ-2" value="deputados_56_detalhes" style="rounded=0;whiteSpace=wrap;html=1;" vertex="1" parent="1">
          <mxGeometry x="647" y="60" width="160" height="60" as="geometry" />
        </mxCell>
        <mxCell id="JTh9-B9_ptDmFLmirEWQ-3" value="partidos" style="rounded=0;whiteSpace=wrap;html=1;" vertex="1" parent="1">
          <mxGeometry x="43" y="60" width="120" height="60" as="geometry" />
        </mxCell>
        <mxCell id="JTh9-B9_ptDmFLmirEWQ-4" value="despesas" style="rounded=0;whiteSpace=wrap;html=1;" vertex="1" parent="1">
          <mxGeometry x="427" y="380" width="120" height="60" as="geometry" />
        </mxCell>
        <mxCell id="JTh9-B9_ptDmFLmirEWQ-8" value="Tem" style="shape=rhombus;html=1;dashed=0;whiteSpace=wrap;perimeter=rhombusPerimeter;" vertex="1" parent="1">
          <mxGeometry x="243" y="60" width="96" height="60" as="geometry" />
        </mxCell>
        <mxCell id="JTh9-B9_ptDmFLmirEWQ-9" value="" style="edgeStyle=entityRelationEdgeStyle;fontSize=12;html=1;endArrow=ERoneToMany;rounded=0;exitX=1;exitY=0.5;exitDx=0;exitDy=0;entryX=0;entryY=0.5;entryDx=0;entryDy=0;" edge="1" parent="1" source="JTh9-B9_ptDmFLmirEWQ-8" target="JTh9-B9_ptDmFLmirEWQ-1">
          <mxGeometry width="100" height="100" relative="1" as="geometry">
            <mxPoint x="393" y="100" as="sourcePoint" />
            <mxPoint x="517" y="100" as="targetPoint" />
            <Array as="points">
              <mxPoint x="387" y="80" />
              <mxPoint x="355" y="100" />
              <mxPoint x="357" y="50" />
              <mxPoint x="395" y="20" />
              <mxPoint x="405" y="-20" />
              <mxPoint x="307" y="-20" />
            </Array>
          </mxGeometry>
        </mxCell>
        <mxCell id="JTh9-B9_ptDmFLmirEWQ-11" value="" style="edgeStyle=entityRelationEdgeStyle;fontSize=12;html=1;endArrow=ERoneToMany;rounded=0;entryX=1;entryY=0.5;entryDx=0;entryDy=0;exitX=0;exitY=0.5;exitDx=0;exitDy=0;" edge="1" parent="1" source="JTh9-B9_ptDmFLmirEWQ-8" target="JTh9-B9_ptDmFLmirEWQ-3">
          <mxGeometry width="100" height="100" relative="1" as="geometry">
            <mxPoint x="337" y="240" as="sourcePoint" />
            <mxPoint x="387" y="110" as="targetPoint" />
            <Array as="points">
              <mxPoint x="397" y="90" />
              <mxPoint x="365" y="110" />
              <mxPoint x="367" y="60" />
              <mxPoint x="405" y="30" />
              <mxPoint x="415" y="-10" />
              <mxPoint x="317" y="-10" />
            </Array>
          </mxGeometry>
        </mxCell>
        <mxCell id="JTh9-B9_ptDmFLmirEWQ-12" value="Tem" style="shape=rhombus;html=1;dashed=0;whiteSpace=wrap;perimeter=rhombusPerimeter;" vertex="1" parent="1">
          <mxGeometry x="243" y="220" width="96" height="60" as="geometry" />
        </mxCell>
        <mxCell id="JTh9-B9_ptDmFLmirEWQ-13" value="" style="edgeStyle=entityRelationEdgeStyle;fontSize=12;html=1;endArrow=ERoneToMany;rounded=0;exitX=1;exitY=0;exitDx=0;exitDy=0;entryX=0;entryY=0.75;entryDx=0;entryDy=0;" edge="1" parent="1" source="JTh9-B9_ptDmFLmirEWQ-12" target="JTh9-B9_ptDmFLmirEWQ-1">
          <mxGeometry width="100" height="100" relative="1" as="geometry">
            <mxPoint x="463" y="100" as="sourcePoint" />
            <mxPoint x="627" y="180" as="targetPoint" />
            <Array as="points">
              <mxPoint x="397" y="90" />
              <mxPoint x="557" y="400" />
              <mxPoint x="365" y="110" />
              <mxPoint x="367" y="60" />
              <mxPoint x="405" y="30" />
              <mxPoint x="415" y="-10" />
              <mxPoint x="317" y="-10" />
            </Array>
          </mxGeometry>
        </mxCell>
        <mxCell id="JTh9-B9_ptDmFLmirEWQ-15" value="" style="edgeStyle=entityRelationEdgeStyle;fontSize=12;html=1;endArrow=ERoneToMany;startArrow=ERmandOne;rounded=0;exitX=0;exitY=0.5;exitDx=0;exitDy=0;entryX=1;entryY=0.5;entryDx=0;entryDy=0;" edge="1" parent="1" source="JTh9-B9_ptDmFLmirEWQ-2" target="JTh9-B9_ptDmFLmirEWQ-1">
          <mxGeometry width="100" height="100" relative="1" as="geometry">
            <mxPoint x="257" y="-20" as="sourcePoint" />
            <mxPoint x="457" y="-20" as="targetPoint" />
            <Array as="points">
              <mxPoint x="717" y="-170" />
              <mxPoint x="757" y="-240" />
              <mxPoint x="767" y="-230" />
            </Array>
          </mxGeometry>
        </mxCell>
        <mxCell id="JTh9-B9_ptDmFLmirEWQ-16" value="" style="edgeStyle=entityRelationEdgeStyle;fontSize=12;html=1;endArrow=ERoneToMany;startArrow=ERzeroToMany;rounded=0;exitX=0;exitY=0.5;exitDx=0;exitDy=0;entryX=1;entryY=1;entryDx=0;entryDy=0;" edge="1" parent="1" source="JTh9-B9_ptDmFLmirEWQ-4" target="JTh9-B9_ptDmFLmirEWQ-12">
          <mxGeometry width="100" height="100" relative="1" as="geometry">
            <mxPoint x="393" y="330" as="sourcePoint" />
            <mxPoint x="383" y="420" as="targetPoint" />
          </mxGeometry>
        </mxCell>
      </root>
    </mxGraphModel>
  </diagram>
</mxfile>
